<svg width="615" height="291" viewBox="0 0 615 291" fill="none" xmlns="http://www.w3.org/2000/svg">
<path d="M555.912 154.453C555.918 154.039 556.088 153.644 556.383 153.354C558.139 151.604 559.533 149.525 560.483 147.235C561.434 144.946 561.923 142.491 561.923 140.012C561.923 137.533 561.434 135.078 560.483 132.788C559.533 130.499 558.139 128.42 556.383 126.67C556.091 126.376 555.927 125.978 555.927 125.563C555.927 125.148 556.091 124.751 556.383 124.456C556.677 124.164 557.075 124 557.49 124C557.905 124 558.302 124.164 558.597 124.456C560.637 126.497 562.256 128.92 563.361 131.586C564.465 134.252 565.034 137.11 565.034 139.996C565.034 142.882 564.465 145.74 563.361 148.406C562.256 151.072 560.637 153.495 558.597 155.536C558.377 155.757 558.097 155.908 557.791 155.969C557.485 156.031 557.168 156 556.88 155.88C556.592 155.76 556.346 155.558 556.174 155.298C556.002 155.038 555.911 154.733 555.912 154.421V154.453Z" fill="#E70376"/>
<path d="M547.044 145.584C547.043 145.378 547.082 145.173 547.16 144.982C547.239 144.79 547.354 144.616 547.499 144.47C548.641 143.273 549.278 141.682 549.278 140.028C549.278 138.373 548.641 136.782 547.499 135.585C547.242 135.285 547.108 134.899 547.123 134.504C547.138 134.109 547.302 133.734 547.581 133.455C547.861 133.175 548.236 133.011 548.631 132.996C549.026 132.981 549.412 133.115 549.712 133.372C551.476 135.138 552.467 137.532 552.467 140.028C552.467 142.523 551.476 144.917 549.712 146.683C549.418 146.975 549.02 147.139 548.606 147.139C548.191 147.139 547.793 146.975 547.499 146.683C547.209 146.391 547.046 145.996 547.044 145.584Z" fill="#E70376"/>
<path d="M551.47 150.01C551.476 149.596 551.646 149.201 551.941 148.911C553.109 147.745 554.035 146.36 554.667 144.836C555.299 143.311 555.624 141.677 555.624 140.027C555.624 138.377 555.299 136.743 554.667 135.219C554.035 133.694 553.109 132.309 551.941 131.143C551.684 130.843 551.55 130.456 551.565 130.061C551.58 129.666 551.744 129.292 552.024 129.012C552.303 128.733 552.678 128.569 553.073 128.553C553.468 128.538 553.854 128.673 554.154 128.93C557.097 131.873 558.75 135.865 558.75 140.027C558.75 144.189 557.097 148.181 554.154 151.125C553.86 151.417 553.463 151.581 553.048 151.581C552.633 151.581 552.235 151.417 551.941 151.125C551.793 150.979 551.675 150.806 551.594 150.615C551.513 150.423 551.471 150.218 551.47 150.01Z" fill="#E70376"/>
<path d="M522.837 132.491C522.16 132.541 521.567 132.813 521.065 133.3C520.633 133.72 520.354 134.246 520.244 134.839C520.205 135.051 520.203 135.435 520.203 140.423V145.779L520.256 146.031C520.462 147.044 521.204 147.875 522.172 148.19C522.616 148.334 521.906 148.324 531.975 148.324C539.771 148.324 541.26 148.319 541.401 148.291C542.566 148.06 543.46 147.181 543.695 146.031L543.748 145.779V135.044L543.695 134.794C543.457 133.639 542.59 132.772 541.433 132.532L541.185 132.481L532.119 132.476C527.134 132.476 522.957 132.481 522.837 132.491ZM541.185 134.083C541.642 134.201 542.009 134.554 542.146 135.008C542.17 135.094 542.189 135.277 542.199 135.529L542.213 135.92H521.737L521.752 135.529C521.761 135.277 521.781 135.094 521.805 135.008C521.939 134.558 522.304 134.203 522.753 134.085C522.869 134.054 524.122 134.049 531.963 134.049C540.006 134.047 541.06 134.052 541.185 134.083ZM542.182 143.432C542.182 145.918 542.189 145.786 542.031 146.091C541.927 146.285 541.68 146.528 541.485 146.624C541.156 146.787 541.983 146.775 531.975 146.775C523.947 146.775 522.89 146.77 522.765 146.739C522.309 146.624 521.956 146.283 521.802 145.815C521.761 145.692 521.757 145.529 521.749 143.463C521.747 142.243 521.747 141.23 521.754 141.211C521.766 141.184 523.438 141.18 531.975 141.18H542.182V143.432Z" fill="#E70376"/>
<path d="M523.687 143.3C523.541 143.341 523.373 143.442 523.291 143.538C522.969 143.92 523.068 144.511 523.49 144.741C523.683 144.844 523.86 144.859 524.931 144.849L525.911 144.842L526.063 144.772C526.25 144.686 526.406 144.52 526.476 144.33C526.548 144.143 526.533 143.886 526.447 143.713C526.37 143.567 526.199 143.403 526.048 143.334C525.938 143.283 525.906 143.281 524.867 143.276C524.069 143.271 523.769 143.279 523.687 143.3Z" fill="#E70376"/>
<path d="M528.094 143.291C527.95 143.327 527.801 143.416 527.693 143.528C527.335 143.913 527.453 144.525 527.936 144.763L528.097 144.842L529.091 144.849C530.171 144.859 530.32 144.847 530.517 144.739C530.82 144.575 530.981 144.189 530.882 143.857C530.813 143.61 530.681 143.456 530.45 143.348L530.306 143.281L529.237 143.276C528.649 143.274 528.135 143.281 528.094 143.291Z" fill="#E70376"/>
<path d="M532.417 143.319C532.227 143.379 532.05 143.533 531.958 143.72C531.901 143.838 531.891 143.886 531.891 144.061C531.891 144.22 531.903 144.292 531.944 144.378C532.021 144.544 532.17 144.693 532.343 144.772L532.491 144.842L533.486 144.849C534.158 144.854 534.533 144.849 534.638 144.83C534.929 144.779 535.116 144.638 535.239 144.373C535.289 144.265 535.301 144.208 535.301 144.049C535.299 143.888 535.289 143.836 535.232 143.725C535.116 143.495 534.96 143.367 534.72 143.305C534.61 143.276 534.393 143.269 533.572 143.271C532.64 143.271 532.551 143.276 532.417 143.319Z" fill="#E70376"/>
<path d="M480.219 244.311C480.219 243.072 480.671 242.047 481.577 241.237C482.483 240.379 483.627 239.95 485.009 239.95H504.886C508.318 239.95 511.345 240.641 513.967 242.023C516.636 243.358 518.686 245.289 520.116 247.815C521.593 250.294 522.332 253.177 522.332 256.466C522.332 259.803 521.617 262.735 520.187 265.261C518.757 267.74 516.731 269.67 514.11 271.052C511.488 272.387 508.413 273.054 504.886 273.054H489.8V283.565C489.8 285.853 488.965 287.617 487.297 288.856C485.676 290.048 483.317 290.643 480.219 290.643V244.311ZM504.886 264.76C507.412 264.76 509.367 264.022 510.749 262.544C512.131 261.066 512.823 259.017 512.823 256.395C512.823 253.821 512.108 251.819 510.678 250.389C509.295 248.959 507.365 248.244 504.886 248.244H489.8V264.76H504.886Z" fill="url(#paint0_linear_18_3)"/>
<path d="M547.154 290.643C543.245 290.643 539.67 289.881 536.429 288.355C533.187 286.782 530.613 284.661 528.707 281.992C526.848 279.323 525.918 276.415 525.918 273.269V256.609C525.918 253.463 526.848 250.58 528.707 247.958C530.613 245.289 533.187 243.191 536.429 241.666C539.67 240.093 543.245 239.306 547.154 239.306C551.062 239.306 554.637 240.093 557.879 241.666C561.168 243.191 563.742 245.289 565.601 247.958C567.507 250.58 568.461 253.463 568.461 256.609V273.269C568.461 276.415 567.507 279.323 565.601 281.992C563.742 284.661 561.168 286.782 557.879 288.355C554.637 289.881 551.062 290.643 547.154 290.643ZM547.154 282.278C550.729 282.278 553.589 281.444 555.734 279.775C557.879 278.059 558.951 275.843 558.951 273.126V256.824C558.951 254.059 557.879 251.843 555.734 250.174C553.589 248.458 550.729 247.6 547.154 247.6C543.626 247.6 540.79 248.458 538.645 250.174C536.5 251.843 535.428 254.059 535.428 256.824V273.126C535.428 275.843 536.5 278.059 538.645 279.775C540.79 281.444 543.626 282.278 547.154 282.278Z" fill="url(#paint1_linear_18_3)"/>
<path d="M594.772 290.643C590.482 290.643 586.74 290.119 583.547 289.07C580.353 288.022 577.898 286.544 576.182 284.637C574.514 282.683 573.68 280.419 573.68 277.845C573.68 273.936 576.325 271.982 581.616 271.982C581.807 275.605 583.022 278.345 585.263 280.204C587.551 282.063 590.744 282.993 594.844 282.993C598.228 282.993 600.85 282.421 602.709 281.277C604.568 280.085 605.497 278.441 605.497 276.343C605.497 274.961 605.14 273.841 604.425 272.983C603.71 272.077 602.494 271.291 600.778 270.623C599.062 269.908 596.56 269.193 593.271 268.478C588.599 267.382 584.905 266.167 582.188 264.832C579.519 263.497 577.588 261.9 576.397 260.041C575.205 258.135 574.609 255.775 574.609 252.963C574.609 250.246 575.396 247.863 576.969 245.813C578.589 243.763 580.853 242.166 583.761 241.022C586.716 239.878 590.101 239.306 593.914 239.306C597.584 239.306 600.85 239.807 603.71 240.808C606.617 241.761 608.881 243.12 610.502 244.883C612.17 246.647 613.005 248.673 613.005 250.961C613.005 254.488 610.454 256.323 605.354 256.466C605.068 253.177 604.019 250.77 602.208 249.245C600.397 247.72 597.632 246.957 593.914 246.957C590.72 246.957 588.266 247.481 586.55 248.53C584.834 249.579 583.976 251.056 583.976 252.963C583.976 254.298 584.309 255.418 584.977 256.323C585.644 257.181 586.764 257.944 588.337 258.611C589.91 259.231 592.15 259.875 595.058 260.542C599.968 261.638 603.853 262.878 606.713 264.26C609.573 265.595 611.646 267.239 612.933 269.193C614.22 271.1 614.864 273.46 614.864 276.272C614.864 279.18 614.029 281.73 612.361 283.922C610.74 286.067 608.405 287.736 605.354 288.927C602.351 290.071 598.824 290.643 594.772 290.643Z" fill="url(#paint2_linear_18_3)"/>
<line x1="557" y1="80" x2="557" y2="98" stroke="white" stroke-width="2"/>
<line x1="557" y1="178" x2="557" y2="196" stroke="white" stroke-width="2"/>
<path d="M74.4999 137.7L0.399902 4.4998C2.1999 3.29981 5.0999 2.29981 9.0999 1.49981C13.0999 0.699805 16.6999 0.299805 19.8999 0.299805C27.2999 0.299805 33.4999 1.79981 38.4999 4.79982C43.4999 7.79982 47.6999 12.4998 51.0999 18.8998L93.6999 98.9998L85.5999 116.1L88.5999 117.3L138.1 18.8998C144.3 6.49981 154.7 0.299805 169.3 0.299805C172.5 0.299805 176.1 0.699805 180.1 1.49981C184.1 2.29981 187 3.29981 188.8 4.4998L114.7 138V186C114.7 195.6 111.2 203 104.2 208.2C97.3999 213.2 87.4999 215.7 74.4999 215.7V137.7Z" fill="#5F009E"/>
<path d="M223.1 218.7C212.9 218.7 203.5 216.7 194.9 212.7C186.5 208.7 179.7 203 174.5 195.6C169.5 188 167 179 167 168.6C167 158.2 169.7 149.2 175.1 141.6C180.5 133.8 187.8 127.9 197 123.9C206.4 119.7 216.7 117.6 227.9 117.6C237.1 117.6 245.3 119.1 252.5 122.1C259.9 124.9 266.7 129.2 272.9 135L274.4 133.5C272.6 131.7 269.5 129 265.1 125.4V119.4C265.1 111.2 262.2 104.7 256.4 99.8998C250.6 95.0998 242.5 92.6998 232.1 92.6998C213.5 92.6998 199.8 99.4998 191 113.1C186.6 111.7 182.9 109.5 179.9 106.5C176.9 103.3 175.4 99.8998 175.4 96.2998C175.4 90.2998 178.1 84.7998 183.5 79.7998C188.9 74.7998 196.2 70.7998 205.4 67.7998C214.6 64.7998 224.6 63.2998 235.4 63.2998C256.6 63.2998 273 68.2998 284.6 78.2998C296.2 88.0998 302 101.5 302 118.5V193.5C302 202.3 299.2 208.7 293.6 212.7C288 216.7 279.2 218.7 267.2 218.7V206.4C270.6 203 272.9 200.5 274.1 198.9L272.9 197.4C266.3 204.4 259.2 209.7 251.6 213.3C244.2 216.9 234.7 218.7 223.1 218.7ZM232.7 191.4C243.1 191.4 251.2 189.4 257 185.4C262.8 181.4 265.7 175.7 265.7 168.3C265.7 161.1 262.7 155.4 256.7 151.2C250.9 147 243 144.9 233 144.9C223.8 144.9 216.5 147 211.1 151.2C205.9 155.2 203.3 160.9 203.3 168.3C203.3 175.9 205.9 181.7 211.1 185.7C216.3 189.5 223.5 191.4 232.7 191.4Z" fill="#5F009E"/>
<path d="M333.8 216C329.6 216 326.2 214.5 323.6 211.5C321.2 208.3 320 204.7 320 200.7C320 197.1 321 194.2 323 192L414.5 85.8L412.7 84.3L404 93.9H346.4C339.4 93.9 334 91.3 330.2 86.1C326.6 80.9 324.8 74.2 324.8 66H441.2C445.4 66 448.8 67.4 451.4 70.2C454 73 455.3 76.3 455.3 80.1C455.3 83.7 454.1 87 451.7 90L360.5 195.9L362.3 197.7L371 188.1H434C441 188.1 446.3 190.7 449.9 195.9C453.7 201.1 455.6 207.8 455.6 216H333.8Z" fill="#5F009E"/>
<path d="M542 216.7C529 216.7 517.2 214.4 506.6 209.8C496.2 205 488 198.4 482 190C476 181.6 473 172.1 473 161.5V119.2C473 108.4 475.9 98.5998 481.7 89.7998C487.7 80.9998 495.9 74.0998 506.3 69.0998C516.7 63.8998 528.6 61.2998 542 61.2998C555.4 61.2998 567.3 63.8998 577.7 69.0998C588.3 74.0998 596.5 80.9998 602.3 89.7998C608.3 98.5998 611.3 108.4 611.3 119.2V161.5C611.3 172.1 608.2 181.6 602 190C596 198.4 587.7 205 577.1 209.8C566.7 214.4 555 216.7 542 216.7ZM542 184.6C552 184.6 559.8 182.3 565.4 177.7C571.2 173.1 574.1 166.9 574.1 159.1V121C574.1 112.8 571.2 106.2 565.4 101.2C559.8 95.9998 552 93.3998 542 93.3998C532.2 93.3998 524.4 95.9998 518.6 101.2C512.8 106.2 509.9 112.8 509.9 121V159.1C509.9 166.9 512.8 173.1 518.6 177.7C524.4 182.3 532.2 184.6 542 184.6Z" fill="#E70376"/>
<path d="M541.85 79.9998V97.9998M541.85 181V199M542 216.7C529 216.7 517.2 214.4 506.6 209.8C496.2 205 488 198.4 482 190C476 181.6 473 172.1 473 161.5V119.2C473 108.4 475.9 98.5998 481.7 89.7998C487.7 80.9998 495.9 74.0998 506.3 69.0998C516.7 63.8998 528.6 61.2998 542 61.2998C555.4 61.2998 567.3 63.8998 577.7 69.0998C588.3 74.0998 596.5 80.9998 602.3 89.7998C608.3 98.5998 611.3 108.4 611.3 119.2V161.5C611.3 172.1 608.2 181.6 602 190C596 198.4 587.7 205 577.1 209.8C566.7 214.4 555 216.7 542 216.7ZM542 184.6C552 184.6 559.8 182.3 565.4 177.7C571.2 173.1 574.1 166.9 574.1 159.1V121C574.1 112.8 571.2 106.2 565.4 101.2C559.8 95.9998 552 93.3998 542 93.3998C532.2 93.3998 524.4 95.9998 518.6 101.2C512.8 106.2 509.9 112.8 509.9 121V159.1C509.9 166.9 512.8 173.1 518.6 177.7C524.4 182.3 532.2 184.6 542 184.6Z" stroke="white" stroke-width="2.5"/>
<defs>
<linearGradient id="paint0_linear_18_3" x1="547.5" y1="230" x2="547.5" y2="292.562" gradientUnits="userSpaceOnUse">
<stop stop-color="#E70376"/>
<stop offset="1" stop-color="#E70376"/>
</linearGradient>
<linearGradient id="paint1_linear_18_3" x1="547.5" y1="230" x2="547.5" y2="292.562" gradientUnits="userSpaceOnUse">
<stop stop-color="#E70376"/>
<stop offset="1" stop-color="#E70376"/>
</linearGradient>
<linearGradient id="paint2_linear_18_3" x1="547.5" y1="230" x2="547.5" y2="292.562" gradientUnits="userSpaceOnUse">
<stop stop-color="#E70376"/>
<stop offset="1" stop-color="#E70376"/>
</linearGradient>
</defs>
</svg>
