<svg width="613" height="219" viewBox="0 0 613 219" fill="none" xmlns="http://www.w3.org/2000/svg">
<path d="M74.4999 137.7L0.399902 4.4998C2.1999 3.29981 5.0999 2.29981 9.0999 1.49981C13.0999 0.699805 16.6999 0.299805 19.8999 0.299805C27.2999 0.299805 33.4999 1.79981 38.4999 4.79982C43.4999 7.79982 47.6999 12.4998 51.0999 18.8998L93.6999 98.9998L85.5999 116.1L88.5999 117.3L138.1 18.8998C144.3 6.49981 154.7 0.299805 169.3 0.299805C172.5 0.299805 176.1 0.699805 180.1 1.49981C184.1 2.29981 187 3.29981 188.8 4.4998L114.7 138V186C114.7 195.6 111.2 203 104.2 208.2C97.3999 213.2 87.4999 215.7 74.4999 215.7V137.7Z" fill="#5F009E"/>
<path d="M223.1 218.7C212.9 218.7 203.5 216.7 194.9 212.7C186.5 208.7 179.7 203 174.5 195.6C169.5 188 167 179 167 168.6C167 158.2 169.7 149.2 175.1 141.6C180.5 133.8 187.8 127.9 197 123.9C206.4 119.7 216.7 117.6 227.9 117.6C237.1 117.6 245.3 119.1 252.5 122.1C259.9 124.9 266.7 129.2 272.9 135L274.4 133.5C272.6 131.7 269.5 129 265.1 125.4V119.4C265.1 111.2 262.2 104.7 256.4 99.8998C250.6 95.0998 242.5 92.6998 232.1 92.6998C213.5 92.6998 199.8 99.4998 191 113.1C186.6 111.7 182.9 109.5 179.9 106.5C176.9 103.3 175.4 99.8998 175.4 96.2998C175.4 90.2998 178.1 84.7998 183.5 79.7998C188.9 74.7998 196.2 70.7998 205.4 67.7998C214.6 64.7998 224.6 63.2998 235.4 63.2998C256.6 63.2998 273 68.2998 284.6 78.2998C296.2 88.0998 302 101.5 302 118.5V193.5C302 202.3 299.2 208.7 293.6 212.7C288 216.7 279.2 218.7 267.2 218.7V206.4C270.6 203 272.9 200.5 274.1 198.9L272.9 197.4C266.3 204.4 259.2 209.7 251.6 213.3C244.2 216.9 234.7 218.7 223.1 218.7ZM232.7 191.4C243.1 191.4 251.2 189.4 257 185.4C262.8 181.4 265.7 175.7 265.7 168.3C265.7 161.1 262.7 155.4 256.7 151.2C250.9 147 243 144.9 233 144.9C223.8 144.9 216.5 147 211.1 151.2C205.9 155.2 203.3 160.9 203.3 168.3C203.3 175.9 205.9 181.7 211.1 185.7C216.3 189.5 223.5 191.4 232.7 191.4Z" fill="#5F009E"/>
<path d="M333.8 216C329.6 216 326.2 214.5 323.6 211.5C321.2 208.3 320 204.7 320 200.7C320 197.1 321 194.2 323 192L414.5 85.8L412.7 84.3L404 93.9H346.4C339.4 93.9 334 91.3 330.2 86.1C326.6 80.9 324.8 74.2 324.8 66H441.2C445.4 66 448.8 67.4 451.4 70.2C454 73 455.3 76.3 455.3 80.1C455.3 83.7 454.1 87 451.7 90L360.5 195.9L362.3 197.7L371 188.1H434C441 188.1 446.3 190.7 449.9 195.9C453.7 201.1 455.6 207.8 455.6 216H333.8Z" fill="#5F009E"/>
<path d="M542 216.7C529 216.7 517.2 214.4 506.6 209.8C496.2 205 488 198.4 482 190C476 181.6 473 172.1 473 161.5V119.2C473 108.4 475.9 98.5998 481.7 89.7998C487.7 80.9998 495.9 74.0998 506.3 69.0998C516.7 63.8998 528.6 61.2998 542 61.2998C555.4 61.2998 567.3 63.8998 577.7 69.0998C588.3 74.0998 596.5 80.9998 602.3 89.7998C608.3 98.5998 611.3 108.4 611.3 119.2V161.5C611.3 172.1 608.2 181.6 602 190C596 198.4 587.7 205 577.1 209.8C566.7 214.4 555 216.7 542 216.7ZM542 184.6C552 184.6 559.8 182.3 565.4 177.7C571.2 173.1 574.1 166.9 574.1 159.1V121C574.1 112.8 571.2 106.2 565.4 101.2C559.8 95.9998 552 93.3998 542 93.3998C532.2 93.3998 524.4 95.9998 518.6 101.2C512.8 106.2 509.9 112.8 509.9 121V159.1C509.9 166.9 512.8 173.1 518.6 177.7C524.4 182.3 532.2 184.6 542 184.6Z" fill="#5F009E"/>
<path d="M541.85 79.9998V97.9998M541.85 181V199M542 216.7C529 216.7 517.2 214.4 506.6 209.8C496.2 205 488 198.4 482 190C476 181.6 473 172.1 473 161.5V119.2C473 108.4 475.9 98.5998 481.7 89.7998C487.7 80.9998 495.9 74.0998 506.3 69.0998C516.7 63.8998 528.6 61.2998 542 61.2998C555.4 61.2998 567.3 63.8998 577.7 69.0998C588.3 74.0998 596.5 80.9998 602.3 89.7998C608.3 98.5998 611.3 108.4 611.3 119.2V161.5C611.3 172.1 608.2 181.6 602 190C596 198.4 587.7 205 577.1 209.8C566.7 214.4 555 216.7 542 216.7ZM542 184.6C552 184.6 559.8 182.3 565.4 177.7C571.2 173.1 574.1 166.9 574.1 159.1V121C574.1 112.8 571.2 106.2 565.4 101.2C559.8 95.9998 552 93.3998 542 93.3998C532.2 93.3998 524.4 95.9998 518.6 101.2C512.8 106.2 509.9 112.8 509.9 121V159.1C509.9 166.9 512.8 173.1 518.6 177.7C524.4 182.3 532.2 184.6 542 184.6Z" stroke="white" stroke-width="2.5"/>
</svg>
