<svg width="615" height="303" viewBox="0 0 615 303" fill="none" xmlns="http://www.w3.org/2000/svg">
<path d="M525.812 117.976C525.406 118.179 525.067 118.679 525.067 119.091C525.067 119.56 525.041 119.528 529.677 124.17C532.761 127.253 534.099 128.629 534.157 128.764C534.271 129.045 534.256 129.493 534.131 129.749C533.985 130.025 533.652 130.353 533.386 130.478C533.12 130.598 532.735 130.603 532.474 130.499C532.339 130.441 530.958 129.092 527.88 126.019C524.489 122.633 523.426 121.602 523.244 121.518C522.989 121.404 522.603 121.378 522.374 121.466C521.947 121.628 521.525 122.206 521.525 122.628C521.53 123.102 521.494 123.065 526.135 127.712C529.219 130.796 530.557 132.171 530.615 132.306C530.729 132.587 530.714 133.035 530.589 133.291C530.234 133.978 529.479 134.291 528.875 134.009C528.693 133.921 527.573 132.837 524.234 129.504C521.15 126.43 519.775 125.086 519.639 125.029C519.191 124.847 518.66 124.988 518.321 125.378C517.946 125.821 517.9 126.253 518.181 126.733C518.368 127.055 527.333 137.635 528.01 138.333C530.51 140.911 533.474 141.385 536.105 139.62L536.522 139.338L537.605 140.557L538.683 141.781L540.288 140.177C541.173 139.297 541.887 138.562 541.882 138.541C541.871 138.526 541.335 138.041 540.684 137.463C540.027 136.88 539.496 136.4 539.496 136.385C539.496 136.374 539.621 136.166 539.777 135.932C540.131 135.379 540.277 135.088 540.48 134.515C541.225 132.395 540.642 130.191 538.814 128.217C538.579 127.962 537.553 127.045 536.532 126.18C535.511 125.316 533.683 123.763 532.464 122.732C531.245 121.701 529.526 120.237 528.635 119.487C527.672 118.669 526.916 118.065 526.76 117.992C526.432 117.836 526.104 117.83 525.812 117.976Z" fill="#E70303"/>
<path d="M564.239 118.862C563.895 119.013 526.463 156.46 526.062 157.049C525.109 158.46 525.14 159.695 526.161 160.961C526.744 161.69 527.703 162.383 528.453 162.617C529.453 162.935 530.51 162.721 531.365 162.034C531.599 161.841 533.5 159.554 538.449 153.507C542.7 148.308 545.377 145.084 545.653 144.818C545.971 144.511 546.205 144.339 546.502 144.193C546.898 144 546.934 143.99 547.414 143.995C547.877 144 547.961 144.016 548.716 144.287C549.164 144.448 549.706 144.604 549.924 144.641C550.966 144.797 552.024 144.386 553.352 143.318C554.107 142.708 556.191 140.536 557.628 138.854C563.275 132.264 566.38 125.904 565.963 121.789C565.827 120.482 565.322 119.143 564.853 118.856C564.64 118.726 564.536 118.726 564.239 118.862Z" fill="#E70303"/>
<path d="M547.065 145.938C546.726 146.209 546.627 146.324 545.622 147.548L544.757 148.61L545.32 149.241C545.632 149.59 548.226 152.512 551.091 155.736C553.961 158.961 556.42 161.706 556.566 161.841C556.915 162.164 557.342 162.43 557.769 162.596C558.071 162.716 558.196 162.737 558.717 162.737C559.238 162.742 559.363 162.721 559.696 162.602C561.03 162.117 562.374 160.726 562.775 159.414C562.994 158.705 562.889 157.825 562.509 157.158C562.186 156.585 561.744 156.174 556.514 151.532C553.56 148.912 551.065 146.693 550.971 146.605C550.815 146.459 550.779 146.449 550.44 146.459C549.877 146.475 549.138 146.324 548.252 146.016C547.809 145.86 547.419 145.735 547.382 145.735C547.346 145.735 547.205 145.823 547.065 145.938Z" fill="#E70303"/>
<path d="M484.34 244.167C484.34 242.659 484.913 241.362 486.059 240.276C487.266 239.19 488.714 238.646 490.404 238.646H530.769C530.769 242.267 530.135 244.922 528.868 246.611C527.662 248.24 525.67 249.055 522.895 249.055H496.468V264.802H520.542C520.542 268.423 519.908 271.077 518.641 272.767C517.435 274.396 515.443 275.211 512.668 275.211H496.468V291.592H524.796C527.511 291.592 529.472 292.437 530.678 294.126C531.945 295.755 532.579 298.38 532.579 302H490.404C488.714 302 487.266 301.487 486.059 300.461C484.913 299.375 484.34 298.048 484.34 296.479V244.167Z" fill="#E70303"/>
<path d="M552.306 302.815C549.228 302.815 546.393 302.211 543.798 301.004C541.264 299.798 539.213 298.078 537.644 295.846C536.135 293.553 535.381 290.838 535.381 287.7C535.381 284.563 536.196 281.848 537.825 279.555C539.454 277.202 541.656 275.422 544.432 274.215C547.267 272.948 550.375 272.314 553.754 272.314C556.529 272.314 559.003 272.767 561.175 273.672C563.408 274.517 565.459 275.814 567.329 277.564L567.782 277.111C567.239 276.568 566.304 275.754 564.976 274.667V272.857C564.976 270.384 564.101 268.423 562.352 266.975C560.602 265.526 558.158 264.802 555.021 264.802C549.409 264.802 545.276 266.854 542.622 270.957C541.294 270.534 540.178 269.871 539.273 268.966C538.368 268 537.915 266.975 537.915 265.889C537.915 264.078 538.73 262.419 540.359 260.911C541.988 259.402 544.19 258.196 546.966 257.291C549.741 256.385 552.758 255.933 556.016 255.933C562.412 255.933 567.36 257.441 570.859 260.458C574.359 263.415 576.108 267.457 576.108 272.586V295.212C576.108 297.867 575.264 299.798 573.574 301.004C571.885 302.211 569.23 302.815 565.61 302.815V299.104C566.636 298.078 567.329 297.324 567.691 296.841L567.329 296.389C565.338 298.5 563.196 300.099 560.904 301.185C558.671 302.272 555.805 302.815 552.306 302.815ZM555.202 294.579C558.339 294.579 560.783 293.975 562.533 292.769C564.282 291.562 565.157 289.842 565.157 287.61C565.157 285.438 564.252 283.718 562.442 282.451C560.692 281.184 558.309 280.55 555.292 280.55C552.517 280.55 550.314 281.184 548.685 282.451C547.117 283.658 546.332 285.377 546.332 287.61C546.332 289.903 547.117 291.652 548.685 292.859C550.254 294.005 552.426 294.579 555.202 294.579Z" fill="#E70303"/>
<path d="M603.721 302.815C598.834 302.815 595.213 301.397 592.86 298.561C590.507 295.725 589.331 292.075 589.331 287.61V265.164H580.009C580.009 262.329 580.552 260.217 581.638 258.829C582.724 257.441 584.172 256.747 585.982 256.747H589.512V249.236C589.512 246.762 590.417 245.012 592.227 243.986C594.037 242.9 596.782 242.357 600.463 242.357V256.747H612.5C612.5 259.764 611.927 261.936 610.78 263.264C609.634 264.531 607.794 265.164 605.26 265.164H600.644V287.157C600.644 289.269 601.036 290.777 601.82 291.682C602.665 292.587 604.083 293.04 606.074 293.04C608.186 293.04 610.298 292.467 612.409 291.32C613.013 291.863 613.495 292.557 613.858 293.402C614.22 294.186 614.401 295.001 614.401 295.846C614.401 297.656 613.465 299.285 611.595 300.733C609.724 302.121 607.1 302.815 603.721 302.815Z" fill="#E70303"/>
<path d="M74.4999 137.7L0.399902 4.4998C2.1999 3.29981 5.0999 2.29981 9.0999 1.49981C13.0999 0.699805 16.6999 0.299805 19.8999 0.299805C27.2999 0.299805 33.4999 1.79981 38.4999 4.79982C43.4999 7.79982 47.6999 12.4998 51.0999 18.8998L93.6999 98.9998L85.5999 116.1L88.5999 117.3L138.1 18.8998C144.3 6.49981 154.7 0.299805 169.3 0.299805C172.5 0.299805 176.1 0.699805 180.1 1.49981C184.1 2.29981 187 3.29981 188.8 4.4998L114.7 138V186C114.7 195.6 111.2 203 104.2 208.2C97.3999 213.2 87.4999 215.7 74.4999 215.7V137.7Z" fill="#5F009E"/>
<path d="M223.1 218.7C212.9 218.7 203.5 216.7 194.9 212.7C186.5 208.7 179.7 203 174.5 195.6C169.5 188 167 179 167 168.6C167 158.2 169.7 149.2 175.1 141.6C180.5 133.8 187.8 127.9 197 123.9C206.4 119.7 216.7 117.6 227.9 117.6C237.1 117.6 245.3 119.1 252.5 122.1C259.9 124.9 266.7 129.2 272.9 135L274.4 133.5C272.6 131.7 269.5 129 265.1 125.4V119.4C265.1 111.2 262.2 104.7 256.4 99.8998C250.6 95.0998 242.5 92.6998 232.1 92.6998C213.5 92.6998 199.8 99.4998 191 113.1C186.6 111.7 182.9 109.5 179.9 106.5C176.9 103.3 175.4 99.8998 175.4 96.2998C175.4 90.2998 178.1 84.7998 183.5 79.7998C188.9 74.7998 196.2 70.7998 205.4 67.7998C214.6 64.7998 224.6 63.2998 235.4 63.2998C256.6 63.2998 273 68.2998 284.6 78.2998C296.2 88.0998 302 101.5 302 118.5V193.5C302 202.3 299.2 208.7 293.6 212.7C288 216.7 279.2 218.7 267.2 218.7V206.4C270.6 203 272.9 200.5 274.1 198.9L272.9 197.4C266.3 204.4 259.2 209.7 251.6 213.3C244.2 216.9 234.7 218.7 223.1 218.7ZM232.7 191.4C243.1 191.4 251.2 189.4 257 185.4C262.8 181.4 265.7 175.7 265.7 168.3C265.7 161.1 262.7 155.4 256.7 151.2C250.9 147 243 144.9 233 144.9C223.8 144.9 216.5 147 211.1 151.2C205.9 155.2 203.3 160.9 203.3 168.3C203.3 175.9 205.9 181.7 211.1 185.7C216.3 189.5 223.5 191.4 232.7 191.4Z" fill="#5F009E"/>
<path d="M333.8 216C329.6 216 326.2 214.5 323.6 211.5C321.2 208.3 320 204.7 320 200.7C320 197.1 321 194.2 323 192L414.5 85.8L412.7 84.3L404 93.9H346.4C339.4 93.9 334 91.3 330.2 86.1C326.6 80.9 324.8 74.2 324.8 66H441.2C445.4 66 448.8 67.4 451.4 70.2C454 73 455.3 76.3 455.3 80.1C455.3 83.7 454.1 87 451.7 90L360.5 195.9L362.3 197.7L371 188.1H434C441 188.1 446.3 190.7 449.9 195.9C453.7 201.1 455.6 207.8 455.6 216H333.8Z" fill="#5F009E"/>
<path d="M542 216.7C529 216.7 517.2 214.4 506.6 209.8C496.2 205 488 198.4 482 190C476 181.6 473 172.1 473 161.5V119.2C473 108.4 475.9 98.5998 481.7 89.7998C487.7 80.9998 495.9 74.0998 506.3 69.0998C516.7 63.8998 528.6 61.2998 542 61.2998C555.4 61.2998 567.3 63.8998 577.7 69.0998C588.3 74.0998 596.5 80.9998 602.3 89.7998C608.3 98.5998 611.3 108.4 611.3 119.2V161.5C611.3 172.1 608.2 181.6 602 190C596 198.4 587.7 205 577.1 209.8C566.7 214.4 555 216.7 542 216.7ZM542 184.6C552 184.6 559.8 182.3 565.4 177.7C571.2 173.1 574.1 166.9 574.1 159.1V121C574.1 112.8 571.2 106.2 565.4 101.2C559.8 95.9998 552 93.3998 542 93.3998C532.2 93.3998 524.4 95.9998 518.6 101.2C512.8 106.2 509.9 112.8 509.9 121V159.1C509.9 166.9 512.8 173.1 518.6 177.7C524.4 182.3 532.2 184.6 542 184.6Z" fill="#E70303"/>
</svg>
