<svg width="616" height="275" viewBox="0 0 616 275" fill="none" xmlns="http://www.w3.org/2000/svg">
<path d="M498.044 274.468C494.959 274.468 492.203 273.879 489.776 272.7C487.384 271.521 485.512 269.875 484.16 267.76C482.808 265.645 482.132 263.236 482.132 260.532V250.964C482.132 248.26 482.791 245.868 484.108 243.788C485.46 241.673 487.315 240.044 489.672 238.9C492.029 237.721 494.733 237.132 497.784 237.132C500.835 237.132 503.539 237.6 505.896 238.536C508.288 239.437 510.143 240.72 511.46 242.384C512.777 244.013 513.436 245.885 513.436 248C513.436 249.283 513.003 250.305 512.136 251.068C511.304 251.796 510.177 252.16 508.756 252.16C508.063 252.16 507.3 252.056 506.468 251.848C506.537 251.016 506.572 250.201 506.572 249.404C506.572 247.567 505.757 246.076 504.128 244.932C502.499 243.788 500.384 243.216 497.784 243.216C495.219 243.216 493.121 243.944 491.492 245.4C489.897 246.821 489.1 248.676 489.1 250.964V260.532C489.1 262.855 489.932 264.744 491.596 266.2C493.26 267.656 495.409 268.384 498.044 268.384C500.644 268.384 502.759 267.812 504.388 266.668C506.017 265.524 506.832 264.051 506.832 262.248C506.832 261.416 506.797 260.619 506.728 259.856C507.595 259.683 508.323 259.596 508.912 259.596C510.368 259.596 511.529 259.977 512.396 260.74C513.263 261.503 513.696 262.543 513.696 263.86C513.696 265.905 513.037 267.743 511.72 269.372C510.403 270.967 508.548 272.215 506.156 273.116C503.799 274.017 501.095 274.468 498.044 274.468ZM527.244 274.468C524.367 274.468 522.183 273.653 520.692 272.024C519.236 270.36 518.508 268.263 518.508 265.732V241.084C518.508 239.663 519.028 238.657 520.068 238.068C521.143 237.444 522.79 237.132 525.008 237.132V265.472C525.008 266.651 525.268 267.517 525.788 268.072C526.308 268.592 527.14 268.852 528.284 268.852C529.567 268.852 530.85 268.523 532.132 267.864C532.479 268.176 532.739 268.575 532.912 269.06C533.12 269.511 533.224 269.979 533.224 270.464C533.224 271.504 532.704 272.44 531.664 273.272C530.624 274.069 529.151 274.468 527.244 274.468ZM547.256 274.468C545.003 274.468 542.958 274.069 541.12 273.272C539.318 272.44 537.896 271.296 536.856 269.84C535.816 268.384 535.296 266.737 535.296 264.9V257.568C535.296 255.696 535.799 253.997 536.804 252.472C537.844 250.947 539.266 249.751 541.068 248.884C542.871 247.983 544.934 247.532 547.256 247.532C549.579 247.532 551.642 247.983 553.444 248.884C555.282 249.751 556.703 250.947 557.708 252.472C558.748 253.997 559.268 255.696 559.268 257.568V264.9C559.268 266.737 558.731 268.384 557.656 269.84C556.616 271.296 555.178 272.44 553.34 273.272C551.538 274.069 549.51 274.468 547.256 274.468ZM547.256 268.904C548.99 268.904 550.342 268.505 551.312 267.708C552.318 266.911 552.82 265.836 552.82 264.484V257.88C552.82 256.459 552.318 255.315 551.312 254.448C550.342 253.547 548.99 253.096 547.256 253.096C545.558 253.096 544.206 253.547 543.2 254.448C542.195 255.315 541.692 256.459 541.692 257.88V264.484C541.692 265.836 542.195 266.911 543.2 267.708C544.206 268.505 545.558 268.904 547.256 268.904ZM574.279 274.468C572.026 274.468 570.033 274.069 568.299 273.272C566.566 272.44 565.214 271.296 564.243 269.84C563.273 268.384 562.787 266.737 562.787 264.9V257.62C562.787 255.644 563.273 253.893 564.243 252.368C565.214 250.843 566.566 249.664 568.299 248.832C570.033 247.965 572.009 247.532 574.227 247.532C576.307 247.532 578.145 247.827 579.739 248.416C581.369 249.005 582.634 249.837 583.535 250.912C584.437 251.952 584.887 253.165 584.887 254.552C584.887 255.627 584.471 256.493 583.639 257.152C582.807 257.811 581.715 258.14 580.363 258.14C579.982 258.14 579.705 258.123 579.531 258.088C579.531 256.597 579.046 255.401 578.075 254.5C577.139 253.599 575.909 253.148 574.383 253.148C572.858 253.148 571.61 253.581 570.639 254.448C569.703 255.315 569.235 256.459 569.235 257.88V264.432C569.235 265.749 569.721 266.824 570.691 267.656C571.662 268.453 572.91 268.852 574.435 268.852C575.961 268.852 577.209 268.401 578.179 267.5C579.15 266.564 579.635 265.385 579.635 263.964C579.843 263.929 580.138 263.912 580.519 263.912C581.871 263.912 582.963 264.224 583.795 264.848C584.627 265.472 585.043 266.321 585.043 267.396C585.043 268.783 584.575 270.013 583.639 271.088C582.738 272.128 581.473 272.96 579.843 273.584C578.214 274.173 576.359 274.468 574.279 274.468ZM613.465 272.596C613.153 273.185 612.703 273.653 612.113 274C611.524 274.312 610.848 274.468 610.085 274.468C609.427 274.468 608.837 274.312 608.317 274C607.797 273.723 607.295 273.255 606.809 272.596L599.945 262.456L596.409 265.732V270.516C596.409 271.903 595.872 272.908 594.797 273.532C593.757 274.156 592.163 274.468 590.013 274.468V242.124C590.013 238.796 592.18 237.132 596.513 237.132V258.608L608.421 247.532C610.155 248.884 611.021 249.993 611.021 250.86C611.021 251.415 610.865 251.9 610.553 252.316C610.276 252.732 609.825 253.217 609.201 253.772L603.741 258.868L613.465 272.596Z" fill="#339E00"/>
<path d="M543.945 116.123C546.89 116.489 549.777 117.333 552.082 118.531C553.041 119.022 555.711 120.688 555.871 120.894C555.905 120.928 556.179 121.168 556.499 121.419C557.286 122.046 558.804 123.564 559.477 124.386C559.785 124.762 560.059 125.093 560.094 125.127C560.265 125.276 561.28 126.816 561.771 127.661C564.579 132.454 565.617 138.149 564.647 143.444C564.27 145.487 563.7 147.335 563.403 147.495C563.004 147.712 562.524 147.632 562.273 147.313C561.977 146.936 561.977 146.822 562.25 146.023C562.867 144.254 563.289 141.549 563.289 139.45C563.289 133.253 560.573 127.284 555.871 123.176C554.068 121.59 552.87 120.802 550.793 119.809C544.836 116.979 537.988 117.014 531.997 119.912C530.125 120.825 527.649 122.537 526.599 123.644C526.2 124.066 525.743 124.329 525.412 124.329C525.287 124.329 524.853 124.043 524.442 123.701C524.043 123.359 523.655 123.073 523.598 123.073C523.472 123.073 523.461 123.142 523.221 124.5C523.153 124.933 523.05 125.47 522.993 125.687C522.879 126.166 522.959 126.314 523.278 126.212C523.506 126.143 523.986 126.018 525.367 125.63C526.451 125.333 526.679 125.264 527.364 125.082C528.288 124.831 528.824 125.082 528.824 125.755C528.824 126.28 528.459 126.554 527.398 126.839C525.698 127.296 522.833 128.095 522.479 128.209C521.703 128.46 520.95 128.186 520.95 127.638C520.95 127.524 521.133 126.428 521.361 125.219C521.886 122.343 521.977 121.852 522.057 121.339C522.137 120.779 522.548 120.334 522.97 120.334C523.221 120.334 523.552 120.563 524.362 121.304C524.944 121.841 525.435 122.274 525.458 122.274C525.469 122.274 525.892 121.932 526.382 121.521C528.516 119.718 531.472 118.075 534.131 117.196C537.155 116.192 541.047 115.77 543.945 116.123Z" fill="#339E00"/>
<path d="M541.914 121.693C542.279 121.865 542.439 122.469 542.382 123.439C542.336 124.432 542.131 124.752 541.526 124.752C540.853 124.752 540.693 124.467 540.693 123.211C540.693 122.207 540.716 122.093 540.978 121.842C541.275 121.534 541.515 121.499 541.914 121.693Z" fill="#339E00"/>
<path d="M542.074 127.914L542.348 128.13V140.501L542.074 140.718C541.925 140.832 541.64 140.935 541.423 140.935C540.887 140.935 540.122 141.688 540.122 142.213C540.122 142.921 540.83 143.674 541.492 143.674C542.119 143.674 542.861 142.943 542.861 142.327C542.861 141.814 543.204 141.46 543.717 141.46C544.516 141.46 544.767 142.167 544.39 143.286L544.208 143.822L547.072 146.687C549.64 149.254 549.937 149.597 549.937 149.928C549.937 150.407 549.594 150.749 549.115 150.749C548.784 150.749 548.442 150.453 545.874 147.885L543.01 145.02L542.473 145.203C541.343 145.591 540.248 145.317 539.358 144.427C537.84 142.909 538.217 140.627 540.179 139.531L540.636 139.269L540.693 133.665C540.75 128.222 540.761 128.039 540.978 127.879C541.298 127.64 541.754 127.651 542.074 127.914Z" fill="#339E00"/>
<path d="M520.71 131.701C521.007 132.077 521.007 132.192 520.733 132.99C518.964 138.126 519.524 144.482 522.183 149.549C523.518 152.106 525.914 155.016 527.854 156.454C528.106 156.636 528.334 156.83 528.368 156.864C528.494 157.036 530.776 158.462 531.563 158.873C535.501 160.939 540.499 161.749 544.858 161.03C549.138 160.311 553.03 158.451 556.065 155.678C557.389 154.456 557.526 154.445 558.553 155.312C558.952 155.655 559.34 155.94 559.397 155.94C559.512 155.94 559.523 155.86 559.763 154.514C559.831 154.068 559.934 153.544 559.991 153.327C560.105 152.847 560.025 152.699 559.706 152.802C559.443 152.882 558.724 153.076 556.613 153.658C554.89 154.137 554.958 154.126 554.627 153.943C554.091 153.669 553.988 153.053 554.422 152.653C554.639 152.448 554.935 152.334 556.213 151.991C556.373 151.957 557.492 151.638 558.701 151.307C559.911 150.964 561.041 150.691 561.212 150.691C561.611 150.691 562.034 151.067 562.034 151.421C562.034 151.569 561.851 152.653 561.623 153.84C561.109 156.625 561.007 157.161 560.927 157.675C560.847 158.177 560.402 158.679 560.025 158.679C559.74 158.679 559.363 158.405 558.29 157.389C557.788 156.91 557.537 156.75 557.435 156.819C557.366 156.887 556.887 157.264 556.385 157.675C554.49 159.227 552.082 160.608 549.811 161.452C544.322 163.506 538.673 163.518 533.218 161.475C528.425 159.683 524.237 156.237 521.509 151.832C518.793 147.449 517.538 141.892 518.154 136.996C518.497 134.211 519.136 131.861 519.638 131.495C519.912 131.29 520.482 131.404 520.71 131.701Z" fill="#339E00"/>
<path d="M554.966 138.719C555.263 138.833 555.525 139.233 555.525 139.575C555.525 139.666 555.4 139.872 555.24 140.02C554.989 140.283 554.875 140.306 553.871 140.306C552.615 140.306 552.33 140.146 552.33 139.472C552.33 138.845 552.65 138.651 553.745 138.628C554.247 138.628 554.806 138.662 554.966 138.719Z" fill="#339E00"/>
<path d="M530.083 138.674C530.665 138.89 530.859 139.644 530.425 140.077C530.231 140.271 530.049 140.306 529.067 140.306C527.972 140.306 527.926 140.294 527.698 140.009C527.561 139.838 527.458 139.632 527.458 139.552C527.458 139.221 527.744 138.822 528.063 138.708C528.417 138.594 529.786 138.559 530.083 138.674Z" fill="#339E00"/>
<path d="M542.131 150.584C542.291 150.756 542.359 151.041 542.382 151.657C542.439 152.661 542.279 153.232 541.88 153.415C541.458 153.597 541.287 153.574 540.978 153.255C540.716 153.004 540.693 152.89 540.693 151.885C540.693 150.95 540.727 150.767 540.921 150.573C541.229 150.265 541.846 150.276 542.131 150.584Z" fill="#339E00"/>
<path d="M543.945 116.123C546.89 116.489 549.777 117.333 552.082 118.531C553.041 119.022 555.711 120.688 555.871 120.894C555.905 120.928 556.179 121.168 556.499 121.419C557.286 122.046 558.804 123.564 559.477 124.386C559.785 124.762 560.059 125.093 560.094 125.127C560.265 125.276 561.28 126.816 561.771 127.661C564.579 132.454 565.617 138.149 564.647 143.444C564.27 145.487 563.7 147.335 563.403 147.495C563.004 147.712 562.524 147.632 562.273 147.313C561.977 146.936 561.977 146.822 562.25 146.023C562.867 144.254 563.289 141.549 563.289 139.45C563.289 133.253 560.573 127.284 555.871 123.176C554.068 121.59 552.87 120.802 550.793 119.809C544.836 116.979 537.988 117.014 531.997 119.912C530.125 120.825 527.649 122.537 526.599 123.644C526.2 124.066 525.743 124.329 525.412 124.329C525.287 124.329 524.853 124.043 524.442 123.701C524.043 123.359 523.655 123.073 523.598 123.073C523.472 123.073 523.461 123.142 523.221 124.5C523.153 124.933 523.05 125.47 522.993 125.687C522.879 126.166 522.959 126.314 523.278 126.212C523.506 126.143 523.986 126.018 525.367 125.63C526.451 125.333 526.679 125.264 527.364 125.082C528.288 124.831 528.824 125.082 528.824 125.755C528.824 126.28 528.459 126.554 527.398 126.839C525.698 127.296 522.833 128.095 522.479 128.209C521.703 128.46 520.95 128.186 520.95 127.638C520.95 127.524 521.133 126.428 521.361 125.219C521.886 122.343 521.977 121.852 522.057 121.339C522.137 120.779 522.548 120.334 522.97 120.334C523.221 120.334 523.552 120.563 524.362 121.304C524.944 121.841 525.435 122.274 525.458 122.274C525.469 122.274 525.892 121.932 526.382 121.521C528.516 119.718 531.472 118.075 534.131 117.196C537.155 116.192 541.047 115.77 543.945 116.123Z" stroke="#339E00"/>
<path d="M541.914 121.693C542.279 121.865 542.439 122.469 542.382 123.439C542.336 124.432 542.131 124.752 541.526 124.752C540.853 124.752 540.693 124.467 540.693 123.211C540.693 122.207 540.716 122.093 540.978 121.842C541.275 121.534 541.515 121.499 541.914 121.693Z" stroke="#339E00"/>
<path d="M542.074 127.914L542.348 128.13V140.501L542.074 140.718C541.925 140.832 541.64 140.935 541.423 140.935C540.887 140.935 540.122 141.688 540.122 142.213C540.122 142.921 540.83 143.674 541.492 143.674C542.119 143.674 542.861 142.943 542.861 142.327C542.861 141.814 543.204 141.46 543.717 141.46C544.516 141.46 544.767 142.167 544.39 143.286L544.208 143.822L547.072 146.687C549.64 149.254 549.937 149.597 549.937 149.928C549.937 150.407 549.594 150.749 549.115 150.749C548.784 150.749 548.442 150.453 545.874 147.885L543.01 145.02L542.473 145.203C541.343 145.591 540.248 145.317 539.358 144.427C537.84 142.909 538.217 140.627 540.179 139.531L540.636 139.269L540.693 133.665C540.75 128.222 540.761 128.039 540.978 127.879C541.298 127.64 541.754 127.651 542.074 127.914Z" stroke="#339E00"/>
<path d="M520.71 131.701C521.007 132.077 521.007 132.192 520.733 132.99C518.964 138.126 519.524 144.482 522.183 149.549C523.518 152.106 525.914 155.016 527.854 156.454C528.106 156.636 528.334 156.83 528.368 156.864C528.494 157.036 530.776 158.462 531.563 158.873C535.501 160.939 540.499 161.749 544.858 161.03C549.138 160.311 553.03 158.451 556.065 155.678C557.389 154.456 557.526 154.445 558.553 155.312C558.952 155.655 559.34 155.94 559.397 155.94C559.512 155.94 559.523 155.86 559.763 154.514C559.831 154.068 559.934 153.544 559.991 153.327C560.105 152.847 560.025 152.699 559.706 152.802C559.443 152.882 558.724 153.076 556.613 153.658C554.89 154.137 554.958 154.126 554.627 153.943C554.091 153.669 553.988 153.053 554.422 152.653C554.639 152.448 554.935 152.334 556.213 151.991C556.373 151.957 557.492 151.638 558.701 151.307C559.911 150.964 561.041 150.691 561.212 150.691C561.611 150.691 562.034 151.067 562.034 151.421C562.034 151.569 561.851 152.653 561.623 153.84C561.109 156.625 561.007 157.161 560.927 157.675C560.847 158.177 560.402 158.679 560.025 158.679C559.74 158.679 559.363 158.405 558.29 157.389C557.788 156.91 557.537 156.75 557.435 156.819C557.366 156.887 556.887 157.264 556.385 157.675C554.49 159.227 552.082 160.608 549.811 161.452C544.322 163.506 538.673 163.518 533.218 161.475C528.425 159.683 524.237 156.237 521.509 151.832C518.793 147.449 517.538 141.892 518.154 136.996C518.497 134.211 519.136 131.861 519.638 131.495C519.912 131.29 520.482 131.404 520.71 131.701Z" stroke="#339E00"/>
<path d="M554.966 138.719C555.263 138.833 555.525 139.233 555.525 139.575C555.525 139.666 555.4 139.872 555.24 140.02C554.989 140.283 554.875 140.306 553.871 140.306C552.615 140.306 552.33 140.146 552.33 139.472C552.33 138.845 552.65 138.651 553.745 138.628C554.247 138.628 554.806 138.662 554.966 138.719Z" stroke="#339E00"/>
<path d="M530.083 138.674C530.665 138.89 530.859 139.644 530.425 140.077C530.231 140.271 530.049 140.306 529.067 140.306C527.972 140.306 527.926 140.294 527.698 140.009C527.561 139.838 527.458 139.632 527.458 139.552C527.458 139.221 527.744 138.822 528.063 138.708C528.417 138.594 529.786 138.559 530.083 138.674Z" stroke="#339E00"/>
<path d="M542.131 150.584C542.291 150.756 542.359 151.041 542.382 151.657C542.439 152.661 542.279 153.232 541.88 153.415C541.458 153.597 541.287 153.574 540.978 153.255C540.716 153.004 540.693 152.89 540.693 151.885C540.693 150.95 540.727 150.767 540.921 150.573C541.229 150.265 541.846 150.276 542.131 150.584Z" stroke="#339E00"/>
<path d="M74.4999 137.7L0.399902 4.4998C2.1999 3.29981 5.0999 2.29981 9.0999 1.49981C13.0999 0.699805 16.6999 0.299805 19.8999 0.299805C27.2999 0.299805 33.4999 1.79981 38.4999 4.79982C43.4999 7.79982 47.6999 12.4998 51.0999 18.8998L93.6999 98.9998L85.5999 116.1L88.5999 117.3L138.1 18.8998C144.3 6.49981 154.7 0.299805 169.3 0.299805C172.5 0.299805 176.1 0.699805 180.1 1.49981C184.1 2.29981 187 3.29981 188.8 4.4998L114.7 138V186C114.7 195.6 111.2 203 104.2 208.2C97.3999 213.2 87.4999 215.7 74.4999 215.7V137.7Z" fill="#5F009E"/>
<path d="M223.1 218.7C212.9 218.7 203.5 216.7 194.9 212.7C186.5 208.7 179.7 203 174.5 195.6C169.5 188 167 179 167 168.6C167 158.2 169.7 149.2 175.1 141.6C180.5 133.8 187.8 127.9 197 123.9C206.4 119.7 216.7 117.6 227.9 117.6C237.1 117.6 245.3 119.1 252.5 122.1C259.9 124.9 266.7 129.2 272.9 135L274.4 133.5C272.6 131.7 269.5 129 265.1 125.4V119.4C265.1 111.2 262.2 104.7 256.4 99.8998C250.6 95.0998 242.5 92.6998 232.1 92.6998C213.5 92.6998 199.8 99.4998 191 113.1C186.6 111.7 182.9 109.5 179.9 106.5C176.9 103.3 175.4 99.8998 175.4 96.2998C175.4 90.2998 178.1 84.7998 183.5 79.7998C188.9 74.7998 196.2 70.7998 205.4 67.7998C214.6 64.7998 224.6 63.2998 235.4 63.2998C256.6 63.2998 273 68.2998 284.6 78.2998C296.2 88.0998 302 101.5 302 118.5V193.5C302 202.3 299.2 208.7 293.6 212.7C288 216.7 279.2 218.7 267.2 218.7V206.4C270.6 203 272.9 200.5 274.1 198.9L272.9 197.4C266.3 204.4 259.2 209.7 251.6 213.3C244.2 216.9 234.7 218.7 223.1 218.7ZM232.7 191.4C243.1 191.4 251.2 189.4 257 185.4C262.8 181.4 265.7 175.7 265.7 168.3C265.7 161.1 262.7 155.4 256.7 151.2C250.9 147 243 144.9 233 144.9C223.8 144.9 216.5 147 211.1 151.2C205.9 155.2 203.3 160.9 203.3 168.3C203.3 175.9 205.9 181.7 211.1 185.7C216.3 189.5 223.5 191.4 232.7 191.4Z" fill="#5F009E"/>
<path d="M333.8 216C329.6 216 326.2 214.5 323.6 211.5C321.2 208.3 320 204.7 320 200.7C320 197.1 321 194.2 323 192L414.5 85.8L412.7 84.3L404 93.9H346.4C339.4 93.9 334 91.3 330.2 86.1C326.6 80.9 324.8 74.2 324.8 66H441.2C445.4 66 448.8 67.4 451.4 70.2C454 73 455.3 76.3 455.3 80.1C455.3 83.7 454.1 87 451.7 90L360.5 195.9L362.3 197.7L371 188.1H434C441 188.1 446.3 190.7 449.9 195.9C453.7 201.1 455.6 207.8 455.6 216H333.8Z" fill="#5F009E"/>
<path d="M542 216.7C529 216.7 517.2 214.4 506.6 209.8C496.2 205 488 198.4 482 190C476 181.6 473 172.1 473 161.5V119.2C473 108.4 475.9 98.5998 481.7 89.7998C487.7 80.9998 495.9 74.0998 506.3 69.0998C516.7 63.8998 528.6 61.2998 542 61.2998C555.4 61.2998 567.3 63.8998 577.7 69.0998C588.3 74.0998 596.5 80.9998 602.3 89.7998C608.3 98.5998 611.3 108.4 611.3 119.2V161.5C611.3 172.1 608.2 181.6 602 190C596 198.4 587.7 205 577.1 209.8C566.7 214.4 555 216.7 542 216.7ZM542 184.6C552 184.6 559.8 182.3 565.4 177.7C571.2 173.1 574.1 166.9 574.1 159.1V121C574.1 112.8 571.2 106.2 565.4 101.2C559.8 95.9998 552 93.3998 542 93.3998C532.2 93.3998 524.4 95.9998 518.6 101.2C512.8 106.2 509.9 112.8 509.9 121V159.1C509.9 166.9 512.8 173.1 518.6 177.7C524.4 182.3 532.2 184.6 542 184.6Z" fill="#339E00"/>
</svg>
